<svg xmlns="http://www.w3.org/2000/svg" width="50" height="50" viewBox="0 0 50 50">
  <g fill="none" fill-rule="evenodd">
    <path fill="#9B9B9B" d="M33.6773795,27.0219589 C33.6279016,27.0302052 33.5773242,27.0346033 33.5278463,27.0417501 C33.588869,27.0758348 33.6685834,27.0725363 33.7933776,26.9966702 C33.7548948,27.0049165 33.716412,27.0142623 33.6773795,27.0219589 L33.6773795,27.0219589 Z M12.1033718,32.2831075 C12.416182,32.3842623 12.2655493,32.0225239 12.5778098,32.1247782 C12.5200856,32.3578741 12.2809424,32.4062524 12.1033718,32.5195018 L12.1033718,32.2831075 Z M12.8944682,30.7036634 C12.9972723,30.8900301 12.8845726,30.8509975 12.9752821,31.0989367 C12.6613724,31.2006413 12.7828681,30.8685897 12.5778098,30.8619926 C12.5976009,30.7229048 12.7146986,30.682223 12.8944682,30.7036634 L12.8944682,30.7036634 Z M15.0594006,29.5128956 C15.6707274,29.6750731 16.2721586,29.7503895 16.8856844,29.8729847 C16.9467071,30.4084453 17.1105339,30.8762862 17.2149872,31.3875577 C17.2562188,31.5937156 17.3040474,31.7943759 17.3524258,31.9939367 C17.4568791,31.7800823 17.8384086,31.6596861 17.9621033,31.7300547 C17.9076776,31.9801929 17.6575394,32.0329693 17.3639706,32.0439644 C17.4370879,32.3435804 17.5157028,32.6387985 17.6020142,32.9301683 C17.7581444,33.4485866 17.8433564,33.9834975 18.0407181,34.465632 C18.246876,34.9681074 18.4387403,35.4760804 18.6850302,35.9323765 C18.945064,36.412312 19.4167531,36.7438138 19.7158195,37.1643758 C19.8477605,37.3507425 19.9621094,37.5360097 20.0764583,37.7168789 C20.2243422,37.5569004 20.6355584,37.7047843 20.5756352,37.9670171 C20.4206045,37.9945048 20.3194497,37.9703156 20.2226929,37.9389796 C20.3375916,38.1116025 20.457438,38.2792775 20.6036727,38.43046 C20.1171401,38.2226528 19.7257151,37.9274348 19.2699687,37.6597044 C18.8153219,37.3914244 18.3392347,37.1627266 17.920322,36.839471 C17.5014092,36.517315 17.1589123,36.1137954 16.7839798,35.7416117 C16.4095972,35.3683286 15.9049227,35.1066455 15.5811174,34.6888323 C15.2562127,34.271019 14.9741887,33.8070264 14.7064584,33.3523796 C14.4392778,32.8966333 14.2496126,32.3908593 14.0462035,31.9021278 C13.8438939,31.4155952 13.7015075,30.9026744 13.5695665,30.3892039 C13.4381752,29.8806812 13.3188785,29.3265289 13.2617041,28.7971155 C13.8466427,29.0115197 14.4431261,29.3496186 15.0594006,29.5128956 L15.0594006,29.5128956 Z M14.4788601,28.8883747 C14.2369682,28.9460989 14.2457643,28.7525854 14.0038724,28.8097599 C13.9346033,28.4480215 14.6294928,28.4936511 14.4788601,28.8883747 L14.4788601,28.8883747 Z M17.0121279,27.1517009 C17.0874442,27.4370234 16.7004172,27.2622015 16.5371402,27.3089306 C16.4629233,27.0247077 16.8488508,27.2000793 17.0121279,27.1517009 L17.0121279,27.1517009 Z M17.4876653,28.8097599 C17.7823336,29.0829877 17.1567132,29.1066272 17.0912925,29.2830983 C16.8818361,29.1396124 16.6597354,28.8493422 16.933513,28.6514306 C17.1066856,28.7217992 17.3733164,29.1533563 17.4876653,28.8097599 L17.4876653,28.8097599 Z M19.5464952,32.5195018 C19.4376438,32.7690903 19.528903,32.7839336 19.5464952,33.0714551 C19.4535867,33.0599103 19.4057581,33.089597 19.3876162,33.1511695 C19.1699135,33.0533132 19.0044374,32.9032303 18.9917931,32.5992162 C19.0945971,32.4909146 19.3359393,32.5195018 19.5464952,32.5195018 L19.5464952,32.5195018 Z M20.0214829,40.0187001 C19.8554571,40.0533346 19.8120265,39.9648242 19.7037249,39.940635 C19.6240105,39.7031411 19.8807458,39.8009974 20.0214829,39.7823058 L20.0214829,40.0187001 Z M19.2292869,38.913694 C19.2012495,38.5733961 19.4266487,38.6096799 19.62511,38.6767499 C19.6613938,38.9246891 19.4563354,38.9307364 19.2292869,38.913694 L19.2292869,38.913694 Z M18.6756844,39.2309022 C18.4953649,39.0104507 18.7537495,38.7520662 18.9917931,38.913694 C18.9818975,39.1149041 18.8768944,39.2199071 18.6756844,39.2309022 L18.6756844,39.2309022 Z M15.6663294,35.5992254 C15.6047569,35.5283071 15.5811174,35.4200055 15.5871647,35.2825669 C15.8373029,35.1946062 15.7652851,35.2765196 16.0627022,35.2825669 C15.8955769,35.3523857 15.9247139,35.6195663 15.6663294,35.5992254 L15.6663294,35.5992254 Z M21.8428188,29.5200424 C22.1369374,29.9092684 21.8714061,30.5161972 21.446446,30.1517101 C21.5569466,29.9197138 21.8329233,29.8526438 21.8428188,29.5200424 L21.8428188,29.5200424 Z M22.3183563,31.0197721 C22.1968606,31.4046001 22.5470541,31.3166394 22.5542009,31.5722752 C22.1226438,32.1280768 21.6778925,31.0681505 22.3183563,31.0197721 L22.3183563,31.0197721 Z M22.7136296,37.7306227 C22.8554662,37.7207272 22.8807549,37.82628 23.0291886,37.8092376 C22.9637678,37.9004968 22.925285,38.0203433 22.9505737,38.2039612 C22.8461204,38.0714704 22.6443606,38.0357364 22.7136296,37.7306227 L22.7136296,37.7306227 Z M23.1880676,28.9669896 C23.1567316,29.2253741 23.119898,29.4777113 22.8714091,29.5200424 C22.7894957,29.3990965 22.8422721,28.9065166 23.1880676,28.9669896 L23.1880676,28.9669896 Z M23.2666824,30.8619926 C23.5998335,31.0588047 23.8087402,30.7338999 23.9802635,30.8619926 C23.8164367,31.1885467 23.1006566,31.1478649 22.9505737,30.8619926 C22.9384791,30.6657303 23.0748182,30.617352 23.108903,30.4672691 C23.2820756,30.4782641 23.2793268,30.6662801 23.2666824,30.8619926 L23.2666824,30.8619926 Z M23.6630553,36.4667376 C23.6625055,36.2023058 23.6630553,35.9406228 23.9802635,35.9939489 C23.9659699,36.2429876 23.9247383,36.4645386 23.6630553,36.4667376 L23.6630553,36.4667376 Z M23.1880676,34.9675577 C23.2062095,34.6695909 23.3947752,34.5414981 23.7433194,34.5728341 C23.7856505,34.6877327 23.6520602,34.9807518 23.8213845,34.9675577 C23.6020326,35.0120878 23.3881781,34.94007 23.1880676,34.9675577 L23.1880676,34.9675577 Z M25.6427205,33.1511695 C25.8664705,33.2704662 26.0385436,33.4414398 26.0390933,33.7822874 C25.7477236,33.7833869 25.735629,33.505761 25.5641056,33.3886634 C25.6053372,33.3237923 25.6471185,33.2594711 25.6427205,33.1511695 L25.6427205,33.1511695 Z M25.8010497,31.0989367 C26.0302973,31.1335713 26.1622383,31.2655123 26.1979723,31.4931106 C25.9225454,31.5035559 25.7372782,31.4260405 25.8010497,31.0989367 L25.8010497,31.0989367 Z M28.0187585,35.7575546 C28.241409,35.6915841 28.2232671,35.8675055 28.4129324,35.8356197 C28.4470171,36.1049993 28.1770878,36.0714643 28.0979232,36.2297935 C27.8802205,36.228694 27.9099072,35.8581596 28.0187585,35.7575546 L28.0187585,35.7575546 Z M28.7306903,34.9675577 C28.7911633,35.2633255 28.4283255,35.1385313 28.4129324,35.3611818 C28.169941,35.1880092 28.525632,34.9516148 28.7306903,34.9675577 L28.7306903,34.9675577 Z M29.1270632,39.7031411 C29.0627419,40.0714765 28.6031473,40.202318 28.3343175,39.940635 C28.3453126,39.6085834 28.9692837,39.8878586 29.1270632,39.7031411 L29.1270632,39.7031411 Z M29.4437217,35.4403464 C29.3700546,35.8130798 29.1941332,35.5662401 28.9692837,35.5200607 C28.9659852,35.1594219 29.2463599,35.5156627 29.4437217,35.4403464 L29.4437217,35.4403464 Z M30.8384483,37.1825177 C31.1386141,36.7619557 31.4640687,36.3457917 31.723003,35.8653064 C31.9703924,35.4112094 32.2243789,34.9433685 32.429987,34.4408931 C32.6284483,33.9598581 32.7658868,33.4463876 32.9220171,32.9279693 C33.0704507,32.4282426 33.3574225,31.9477574 33.4646245,31.418344 C33.4756196,31.3661173 33.4827664,31.3133409 33.492662,31.2611142 C33.488264,31.2589152 33.4855152,31.2578157 33.4811172,31.2561665 C33.4855152,31.2545172 33.4893635,31.2523182 33.4937615,31.2506689 C33.5701774,30.8114152 33.6092099,30.3551192 33.6586878,29.9004724 C33.6438444,29.9032211 33.6301006,29.9087187 33.615807,29.9109177 C33.5800729,29.9197138 33.6658346,29.8279048 33.6658346,29.8279048 C33.6630858,29.8526438 33.6614366,29.8762832 33.6586878,29.9004724 C34.2573702,29.7751284 34.8346122,29.5249902 35.4321952,29.3661112 C36.0484697,29.2028342 36.6806872,29.0181167 37.265076,28.8031628 C37.2079015,29.3336757 37.0308806,29.8652881 36.8983899,30.3732611 C36.7658991,30.8867316 36.5586417,31.3628188 36.3563321,31.8488016 C36.1534728,32.3369834 36.1166393,32.9109269 35.8494587,33.3672229 C35.5822781,33.823519 35.1540195,34.1775608 34.8291147,34.595374 C34.5047597,35.0131873 34.1210312,35.3683286 33.7449992,35.741062 C33.6586878,35.8268236 33.5745754,35.9147843 33.490463,36.0021953 C33.5042069,36.1726191 33.4003033,36.2275945 33.3233377,36.3089582 C33.2738598,36.3155552 33.2370263,36.3100577 33.204041,36.2990626 C33.016025,36.4909268 32.8225115,36.6750945 32.6103064,36.839471 C32.1913936,37.1627266 31.7164059,37.3925239 31.2606596,37.6613537 C30.805463,37.9279845 30.2947413,38.3166608 29.8087585,38.526667 C30.1649993,38.1561326 30.5212401,37.6283685 30.8384483,37.1825177 L30.8384483,37.1825177 Z M31.4228371,27.704204 C31.3986479,27.8647322 31.2089827,27.8586849 31.1847935,28.0192132 C30.830202,27.9548919 31.1886418,27.4111849 31.4228371,27.704204 L31.4228371,27.704204 Z M31.8983746,30.2308747 C32.2210803,30.1715012 32.1710527,30.4854109 32.5316915,30.3881044 C32.6680306,30.5678741 32.3167376,30.4276867 32.2144833,30.4672691 C32.0319649,30.5381874 31.9676436,30.8575946 31.7394956,30.7036634 C31.765334,30.5194957 31.8346031,30.3776591 31.8983746,30.2308747 L31.8983746,30.2308747 Z M33.0858438,28.0192132 C33.2144863,28.2330676 33.0770478,28.3265258 33.2436233,28.572266 C33.0506596,28.6162464 33.0753985,28.8784791 32.7697351,28.8097599 C32.5432364,28.4188846 33.0319679,28.3611604 33.0858438,28.0192132 L33.0858438,28.0192132 Z M33.3233377,30.782828 C33.2144863,30.9318114 33.4134974,31.1335713 33.0061295,31.0989367 C33.0187738,30.9026744 32.9665472,30.7707334 32.8478002,30.7036634 C32.980291,30.4529754 33.0171246,30.9477543 33.3233377,30.782828 L33.3233377,30.782828 Z M33.4019526,29.4408778 C33.1655582,29.4386788 33.1336725,29.2358194 32.9275146,29.2044834 C32.9901866,28.9114644 33.490463,29.1082764 33.4019526,29.4408778 L33.4019526,29.4408778 Z M37.4409973,28.4936511 C37.0561693,28.5068452 37.0006442,28.1945848 36.886845,27.9411481 C37.0990502,28.0978281 37.401415,28.1643483 37.4409973,28.4936511 L37.4409973,28.4936511 Z M37.7571061,31.0989367 C37.585033,31.2699103 37.5031196,31.5288446 37.361283,31.7300547 C37.1243389,31.5618298 37.5344556,31.2055891 37.2029537,31.0989367 C37.2562799,30.8114152 37.6630981,30.970844 37.7571061,31.0989367 L37.7571061,31.0989367 Z M37.5987768,32.9928403 C37.5300575,32.7421523 37.723571,32.7492991 37.7571061,32.5992162 C37.8884973,32.6794803 37.8434175,32.9334668 37.9165348,33.0714551 C37.7735987,33.0824502 37.7488597,32.9763476 37.5987768,32.9928403 L37.5987768,32.9928403 Z M39.1029046,32.9136756 C38.8126343,32.9136756 38.8934482,32.5453403 38.4690379,32.6778311 C38.5740409,32.2897045 39.1347903,32.5195018 39.1029046,32.9136756 L39.1029046,32.9136756 Z M38.8659605,25.3364122 C39.0270385,25.4122783 39.036934,25.6393269 39.0248395,25.8878158 L38.6279169,25.8878158 C38.7648057,25.7619221 38.9159881,25.6497722 38.8659605,25.3364122 L38.8659605,25.3364122 Z M31.5020017,40.3353586 C31.5124471,40.193522 31.4041455,40.1682333 31.4228371,40.0187001 C31.6207487,39.846627 31.9434544,40.0252972 31.9764397,40.2567437 C31.7350975,40.1990195 31.7444434,40.392533 31.5020017,40.3353586 L31.5020017,40.3353586 Z M27.9384944,39.2309022 C27.9808255,39.1671307 28.0220571,39.10171 28.0187585,38.9923088 C28.1182641,39.1297474 28.2853894,39.2006657 28.2562524,39.4667468 C28.0940749,39.4431074 28.1001222,39.2539919 27.9384944,39.2309022 L27.9384944,39.2309022 Z M39.2617836,25.9675302 C39.3992221,26.0389982 39.4668419,26.2446063 39.3414979,26.3622538 C39.1397381,26.3545572 39.153482,26.0681352 39.2617836,25.9675302 L39.2617836,25.9675302 Z M39.9737154,30.2308747 L39.9737154,30.5458839 L39.6581564,30.5458839 C39.6669525,30.3446738 39.773055,30.2402205 39.9737154,30.2308747 L39.9737154,30.2308747 Z M40.0534297,29.4408778 C40.0671736,29.7943698 39.7747043,29.6448366 39.6581564,29.5200424 C39.7301742,29.2545111 39.8049408,29.4810099 40.0534297,29.4408778 L40.0534297,29.4408778 Z M41.2414488,27.2314153 C41.2771828,27.4771555 41.1721797,27.583258 40.9242405,27.5464245 C40.887407,27.2990351 40.9935096,27.1934822 41.2414488,27.2314153 L41.2414488,27.2314153 Z M41.4778431,24.7839092 C41.6411201,25.1374012 41.3816361,25.1022169 41.1617344,24.9405892 C41.180426,24.8026008 41.2986232,24.7613693 41.4778431,24.7839092 L41.4778431,24.7839092 Z M8.92854077,27.804809 C9.00825514,28.319379 9.11270846,28.8246032 9.24245047,29.3237801 C9.37219248,29.8279048 9.43541422,30.3545694 9.61463412,30.8383532 C9.79440378,31.3259853 9.96152908,31.8284607 10.1880278,32.2941026 C10.4150764,32.7602942 10.8625764,33.1077389 11.131956,33.5497414 C11.4024351,33.9917438 11.5629633,34.5068636 11.8735745,34.9213783 C12.1830862,35.3369926 12.4772047,35.7756965 12.8251992,36.1610742 C13.1709946,36.546452 13.5943054,36.86421 13.9741857,37.2171522 C14.3546156,37.5695447 14.7042594,37.9681166 15.1149258,38.2847751 C15.5244928,38.6025331 16.0665505,38.7344741 16.5030554,39.0126498 C16.8384055,39.2276037 17.1732059,39.4365103 17.5179018,39.6322228 C17.5365935,39.6063844 17.5558349,39.5805459 17.5657304,39.5453617 C17.6773306,39.5464612 17.7229602,39.6437677 17.7284577,39.7515195 C17.7625425,39.7707609 17.7938785,39.7916516 17.828513,39.8092437 C18.2886573,40.0478371 18.7312095,40.3150177 19.2116948,40.5118297 C19.6910805,40.7069925 20.168817,40.9076528 20.6663446,41.0582855 C21.0264337,41.1682363 21.3947691,41.2419034 21.766403,41.3150207 C21.5624441,41.2430029 21.4552421,41.0753279 21.5256106,40.7295324 C21.8158809,40.7878064 21.965414,40.5365687 22.1589275,40.7295324 C22.1765197,40.9829691 22.0187402,41.0643328 22.0803127,41.3612001 C22.0445787,41.3612001 22.0115934,41.3584513 21.9780584,41.3568021 C22.0467777,41.3705459 22.1143974,41.3826405 22.182567,41.3963844 C22.2051069,41.4007824 22.2287463,41.4079292 22.2501868,41.4134267 C22.3051622,41.195724 22.538258,41.0494894 22.7136296,41.2028709 C22.5640965,41.2391546 22.5140688,41.3727449 22.410715,41.4541086 C22.8389736,41.5690072 23.2611849,41.7421798 23.7004386,41.7861602 C23.7988446,41.7960557 23.8978004,41.8010035 23.9978557,41.8070508 C23.9929079,41.7625207 23.9885098,41.7179906 23.9802635,41.6767591 C24.0990104,41.6734605 24.1572844,41.7295355 24.1864214,41.8152971 C24.5448612,41.8257425 24.9071492,41.8174962 25.265589,41.8174962 C25.265589,41.8174962 25.2463476,41.8757701 25.2831812,41.8697228 C25.8043483,41.8697228 26.3040749,41.7064458 26.8169957,41.6564181 C27.3348642,41.6036417 27.8703249,41.6421245 28.3771983,41.54042 C28.8868206,41.4387154 29.3486142,41.1363506 29.8428433,40.9873672 C30.3409207,40.8361847 30.8714336,40.7856073 31.3524686,40.5904446 C31.8318543,40.3941823 32.2914489,40.1401958 32.749944,39.9016024 C33.2111878,39.6635588 33.5828217,39.2781811 34.0193266,38.9989059 C34.0479139,38.9802143 34.0781503,38.9642714 34.1067376,38.947229 C34.007232,38.757014 34.1578647,38.4584974 34.4316423,38.6767499 C34.4332916,38.7108347 34.4277941,38.7355736 34.4217468,38.7625116 C34.7395048,38.5854907 35.0605613,38.4178156 35.3464335,38.1957149 C35.7570999,37.8790564 36.1985526,37.5948334 36.5784329,37.2418912 C36.9588628,36.8894987 37.3090563,36.5019219 37.656501,36.1159944 C38.0039457,35.7311664 38.3651343,35.3501867 38.6757455,34.9345724 C38.9858069,34.5200577 39.3173087,34.107742 39.5872381,33.66464 C39.8577172,33.2220878 39.9533745,32.6816793 40.180423,32.2149379 C40.4074715,31.7503956 40.6482639,31.2935498 40.8280335,30.8053679 C41.0078032,30.3215842 41.1837246,29.8339521 41.3151158,29.3309269 C41.4432086,28.8312003 41.4728953,28.3122322 41.5509604,27.7971125 C41.6114334,27.4001899 41.7257823,27.0076653 41.7851557,26.6063447 C41.6416699,26.7223428 41.690598,26.5926008 41.4778431,26.5991979 L41.4778431,26.3622538 C41.6658591,26.3424626 41.786805,26.3891917 41.791203,26.5508195 C41.8043971,26.455712 41.8186908,26.3600547 41.8214395,26.263298 C41.8291361,26.1049687 41.8280366,25.9153035 41.8197903,25.7102452 C41.6378216,25.8460345 41.3398548,25.8559301 41.4003277,25.493642 C41.6521152,25.5282765 41.6559635,25.5348735 41.8082454,25.5139829 C41.7719616,24.9482857 41.6834512,24.314419 41.5498609,23.9158472 C41.3596459,23.345752 41.1639334,22.8872569 40.856071,22.5881905 C40.5427111,22.289674 40.1683284,22.1478374 39.8588167,21.9625702 C39.289821,21.6376654 38.7703032,21.3600395 38.2513352,21.177521 C37.6372596,20.9614676 37.0616669,20.815233 36.5240072,20.6904387 C36.0721092,20.593682 35.6389028,20.5854357 35.2452787,20.5293607 C34.774689,20.4611912 34.3530275,20.4073153 33.9703985,20.378728 C33.3216884,20.336397 32.8175637,20.3913724 32.4481289,20.4243577 C32.3634667,20.4320542 32.2045877,20.3875241 32.2012892,20.4721863 C32.1979907,20.5573982 32.3563199,20.5420051 32.4398825,20.5568484 C32.8054692,20.6217194 33.1919464,20.7272723 33.5905183,20.8300763 C33.5322443,20.7080309 33.6196553,20.4980247 33.7983254,20.5205647 C33.9297167,20.6459086 33.7977756,20.7327698 33.7373027,20.8674596 C33.7895293,20.8806537 33.841756,20.8943976 33.8945324,20.9075917 C34.3689704,21.0235898 34.8791423,21.0906599 35.3568788,21.2407428 C35.8401128,21.392475 36.2678217,21.7019866 36.7125729,21.8845051 C37.2040532,22.0857151 37.6048241,22.3875302 37.9956994,22.6228251 C38.4651896,22.904849 38.8901497,23.1132059 39.1441361,23.4183195 C39.5058745,23.8520757 39.6400145,24.2918791 39.3926251,24.7140904 C39.3381994,24.8026008 39.2073579,24.9625793 39.0121951,25.113212 C38.6213198,25.4205247 38.0506748,25.7740167 37.4179077,26.0175578 C36.7785434,26.263298 36.052318,26.4254755 35.3150975,26.6052452 C34.8197689,26.7234423 34.3189427,26.8900179 33.7988752,26.9950209 C33.8895846,27.0884792 33.8873856,27.2731966 33.8780398,27.4678096 C33.5355429,27.4254786 33.6213045,27.2572537 33.2436233,27.3875455 C33.2491209,27.2429601 33.2337277,27.1511512 33.2194341,27.0807826 C32.8175637,27.1198152 32.4057978,27.129161 31.9945816,27.1846862 C31.4459268,27.2583533 30.8890257,27.3364184 30.3205798,27.3891948 C29.7680767,27.4414214 29.2056781,27.4722077 28.6383316,27.5057427 C28.0830798,27.5392777 27.5173826,27.4749564 26.9500362,27.4914491 C26.3920356,27.5084915 25.831836,27.6981567 25.265589,27.6992562 C25.0962647,27.6992562 24.9269404,27.6860621 24.7587156,27.66847 C24.7323274,27.6756168 24.7097875,27.6882611 24.6932948,27.704204 C24.679551,27.6910099 24.6724042,27.6734177 24.6630583,27.6569251 C24.2996708,27.6151438 23.9384822,27.5568698 23.5789429,27.5469743 C23.0132457,27.5299319 22.4491978,27.5425762 21.8933962,27.5090412 C21.3265995,27.4755062 20.7636512,27.4474687 20.2105983,27.3952421 C19.6438017,27.3413661 19.0912986,27.225368 18.5420941,27.1517009 C17.9752974,27.0763846 17.4117992,27.0433993 16.868642,26.9455431 C16.3040443,26.8432888 15.779029,26.6151407 15.2452176,26.487048 C14.5074473,26.3072783 13.8109086,26.111016 13.1720941,25.8641764 C12.5376777,25.6217347 11.9565874,25.3611512 11.5657121,25.0532888 C11.3705493,24.9032059 11.2353098,24.7778619 11.1803343,24.6888017 C10.9318454,24.2665904 11.0500426,23.8729663 11.4112311,23.4397599 C11.6657674,23.1340966 11.9714308,22.7454203 12.4398214,22.4644958 C12.8317962,22.2297507 13.3265751,22.0840659 13.8158564,21.8817563 C14.2617071,21.6986881 14.7108564,21.4534977 15.1957397,21.3023153 C15.6712772,21.1527821 16.1457151,20.9570696 16.6212526,20.8399719 C17.1270265,20.7168269 17.6393975,20.6739461 18.0973428,20.5925825 C18.1814552,20.5771893 18.3436328,20.5573982 18.3403342,20.4721863 C18.336486,20.3875241 18.175408,20.3506906 18.090196,20.3435438 C17.7207612,20.3105585 17.2039921,20.244588 16.5541825,20.2863693 C16.1710038,20.3144068 15.7449442,20.3798276 15.2743546,20.4474473 C14.8807305,20.5046218 14.4370788,20.4980247 13.9857305,20.5964307 C13.447521,20.7201255 12.9197569,21.0345849 12.3051316,21.2506384 C11.7872631,21.4337065 11.16769,21.5112219 10.5992441,21.8377759 C10.2897324,22.0224934 10.0390444,22.3419006 9.72568449,22.6404172 C9.41782209,22.940583 9.14294494,23.3358564 8.95327971,23.9070511 C8.7537189,24.500236 8.62397689,25.6365781 8.65201436,26.2665965 C8.67620355,26.7883133 8.85267468,27.2957365 8.92854077,27.804809 L8.92854077,27.804809 Z M43.1413996,41.4414642 C43.039695,41.3309636 42.7670169,41.3919863 42.6669616,41.2825852 C42.7395292,41.1138107 43.2420046,41.1753831 43.1413996,41.4414642 L43.1413996,41.4414642 Z M33.4019526,43.8873211 C33.6988199,44.0121153 33.9638014,44.171544 34.1149839,44.4392744 C33.8368082,44.610248 33.3876589,44.2721491 33.4019526,43.8873211 L33.4019526,43.8873211 Z M30.3931473,45.7817743 L30.3931473,45.4667651 C30.5107947,45.507447 30.5938076,45.5827633 30.7109053,45.6234451 C30.6911141,45.7630827 30.5740165,45.8043143 30.3931473,45.7817743 L30.3931473,45.7817743 Z M28.3343175,45.6234451 C28.2732948,45.5536263 28.2496553,45.4453247 28.2562524,45.3073364 C28.3480614,45.2424654 28.4684575,45.2039826 28.6520755,45.229821 C28.6724164,45.4860065 28.5575177,45.6097013 28.3343175,45.6234451 L28.3343175,45.6234451 Z M20.4167562,45.7031595 C20.1116426,45.7180028 20.2040013,45.3370231 19.8631536,45.3876005 C19.7949841,45.1358131 19.9873981,45.1424101 20.0214829,44.9923272 C20.1968545,45.1654998 20.5877298,45.4354291 20.4167562,45.7031595 L20.4167562,45.7031595 Z M15.3496709,44.3612093 C15.233123,44.2474101 15.233123,43.8444402 15.3496709,43.7295416 C15.4453281,43.7982609 15.6855708,44.3634083 15.3496709,44.3612093 L15.3496709,44.3612093 Z M12.8944682,44.4392744 C12.9054633,44.2127756 12.9945235,44.0643419 13.2913908,44.1237154 C13.3441672,44.4233315 13.1066734,44.6421337 12.8944682,44.4392744 L12.8944682,44.4392744 Z M8.69819372,41.835638 C9.021999,41.802103 9.19792037,41.9159022 9.17318143,42.2298119 C8.89995355,42.2133192 8.65916117,42.1638414 8.69819372,41.835638 L8.69819372,41.835638 Z M6.95602237,39.7031411 C6.89060161,39.6118819 6.85211881,39.4914857 6.87795726,39.3089673 C7.13524227,39.2875269 7.25893699,39.4024255 7.27433011,39.6239765 C7.13139399,39.6151805 7.10610529,39.721283 6.95602237,39.7031411 L6.95602237,39.7031411 Z M44.0886262,39.5453617 C44.0193572,39.1885711 43.8709235,38.8708131 43.7070968,38.6195754 C43.3744954,38.119299 42.9039057,37.9054446 42.5471152,37.663003 C42.1870261,37.4222106 41.9253431,37.1066516 41.6152817,36.9747106 C40.3695384,36.4744342 39.5894371,36.55085 39.5273149,36.7113783 C39.9236877,36.8697075 40.5256687,37.0758654 41.0133007,37.4343052 C41.375039,37.6981872 41.7164365,38.2138568 42.0347442,38.6668543 C42.3579997,39.1297474 42.6851035,39.6492652 42.4371643,40.1649348 C42.3294125,40.3980306 41.9863658,40.6542161 41.6130827,40.9175484 C41.211762,41.2017713 40.7202817,41.4815963 40.1628308,41.7141423 C39.6790471,41.9148027 39.1292928,42.0373979 38.5778892,42.2012246 C38.0446276,42.3617529 37.5333561,42.6267345 36.9836018,42.7652725 C36.441544,42.9021614 35.8604538,42.8790717 35.3046522,42.9961694 C34.7587462,43.1099685 34.197447,43.1501006 33.6399962,43.2457578 C33.0885926,43.3397658 32.5454354,43.4849009 31.9852358,43.5602173 C31.4310834,43.6338843 30.8818789,43.7795692 30.3205798,43.8345446 C29.7625792,43.8895201 29.1957825,43.8521368 28.6328341,43.8884206 C28.073734,43.9252541 27.5168329,44.0676405 26.9538845,44.0852326 C26.3920356,44.104474 25.8285374,44.0956779 25.265589,44.0956779 C24.7037402,44.0956779 24.138043,44.108872 23.5772936,44.0901804 C23.209508,44.0786356 22.8417224,44.0698395 22.4744865,44.0588444 C22.5476038,44.3232762 22.5278127,44.6822658 23.0291886,44.5195385 C22.7504632,45.0736908 22.4667899,44.3535127 22.0803127,44.5981534 C22.2221493,44.3458161 22.2743759,44.3199777 22.2595326,44.0494986 C22.1363876,44.0434513 22.0115934,44.0429015 21.8900977,44.0346552 C21.3265995,43.9972719 20.7625516,43.9604384 20.2040013,43.9054629 C19.6427022,43.8504875 19.0962464,43.6696184 18.5415443,43.5959513 C17.9813447,43.5222842 17.416747,43.4920477 16.8658932,43.3980397 C16.3078926,43.3045815 15.7652851,43.1457025 15.2177299,43.0319034 C14.6635775,42.9159052 14.1132735,42.8037553 13.572865,42.6668665 C13.022561,42.529428 12.4700579,42.4150791 11.937346,42.2556503 C11.3859425,42.0901743 10.9043577,41.7894587 10.4200242,41.5887984 C9.86312306,41.3562523 9.27983376,41.2572965 8.87851313,40.9719741 C8.50522996,40.7113905 8.29357456,40.3546 8.18527297,40.1209544 C8.02144619,39.779557 8.04783439,39.4387093 8.17592714,39.1132548 C8.05058316,38.9620724 7.96647076,38.5777941 7.90654754,38.913694 C7.44145541,38.6871952 7.87081351,37.7284237 8.382085,38.045632 C8.33370662,38.1171 8.28642776,38.1869188 8.382085,38.2039612 C8.36944065,38.2952204 8.23749962,38.269382 8.1451409,38.2820263 C8.12315073,38.4887339 8.17317837,38.6217745 8.382085,38.598135 C8.33700515,38.7009391 8.21990749,38.8548703 8.24244741,38.9620724 C8.29962186,38.8482732 8.36614213,38.7377726 8.44200822,38.629471 C8.75921645,38.1764735 9.21111447,37.7746031 9.5728528,37.5096215 C9.61298486,37.4804845 9.6569652,37.4568451 9.69709727,37.4288076 C9.68280366,37.3540411 9.67840562,37.2853218 9.72843326,37.1764704 C9.84992896,37.159428 9.90270537,37.2100054 9.94613596,37.2699287 C10.3403098,37.0434299 10.753725,36.8834514 11.0538909,36.7641547 C10.9912189,36.6025269 10.178682,36.5184145 8.93403831,37.0197904 C8.62397689,37.1495325 8.24849471,37.2787247 7.88730614,37.5189673 C7.52996585,37.7630583 7.16767777,38.1269956 6.83397692,38.6278218 C6.67015014,38.87796 6.5310623,39.1918697 6.46124351,39.5497597 C6.39197447,39.9131473 6.44530063,40.3045723 6.54590567,40.6586141 C6.75701132,41.3952849 7.28587495,41.8664243 7.77790504,42.312275 C8.11765319,42.6118911 8.41122198,42.9466915 8.7922017,43.1863843 C9.17098241,43.4227787 9.50138474,43.7663751 9.9131507,43.9615379 C10.3144713,44.1506534 10.7630708,44.263353 11.1880309,44.4299285 C11.6366304,44.6003524 12.0907275,44.7988137 12.5646157,44.9461478 C13.0242102,45.0890839 13.5420788,45.0484021 14.022564,45.1704476 C14.4898552,45.2897443 14.9236113,45.5849623 15.4079448,45.6861171 C15.9368085,45.7977172 16.4909608,45.8455458 17.0407151,45.9362553 C17.575626,46.0253155 18.119333,46.1165747 18.6718361,46.1863935 C19.2100455,46.2551128 19.7658471,46.2485157 20.3188999,46.2996429 C20.8609577,46.3496705 21.4090627,46.3958499 21.9621155,46.4288351 C22.5063723,46.4618204 23.0561265,46.5332885 23.6097291,46.5503308 C24.1512371,46.5662737 24.6987924,46.4805121 25.2490964,46.4799623 C25.258992,46.4623702 25.2710866,46.4491761 25.2710866,46.4491761 C25.8252389,46.4486263 26.3705952,46.3914519 26.9165012,46.3766085 C27.4712033,46.3601159 28.0264551,46.4953554 28.5707118,46.4640194 C29.1248642,46.4299347 29.6707702,46.3474715 30.2117284,46.2968941 C30.765331,46.2463167 31.3161848,46.2155305 31.8543942,46.1468112 C32.4063475,46.0775422 32.9599501,46.053353 33.4954108,45.965942 C34.0446153,45.8741331 34.5932701,45.7988167 35.123783,45.6883161 C35.609216,45.5871613 36.0402234,45.2781994 36.506415,45.1600022 C36.9863505,45.037407 37.4739826,44.9813321 37.9335772,44.8389457 C38.4074654,44.6927111 38.840122,44.4607148 39.2887215,44.290291 C39.7136816,44.1237154 40.1452387,44.0000207 40.5465593,43.811455 C40.9577755,43.6157424 41.4327632,43.5387768 41.8109942,43.3023825 C42.1919739,43.0626896 42.4190224,42.6195877 42.7598701,42.3205213 C43.2513504,41.8735711 43.7301864,41.3826405 43.9412921,40.6459698 C44.0424469,40.2924777 44.1589948,39.9081995 44.0886262,39.5453617 L44.0886262,39.5453617 Z M25.265589,46.6289457 C25.2628403,46.6289457 25.2628403,46.4794125 25.258992,46.4794125 C25.2562432,46.4794125 25.2540442,46.4799623 25.2490964,46.4799623 C25.2419496,46.4920569 25.2348028,46.505251 25.2331535,46.5189949 C25.2331535,46.5222934 25.2683378,46.6289457 25.265589,46.6289457 L25.265589,46.6289457 Z M23.1880676,17.1258319 C23.1534331,17.2753651 23.2958194,17.6019191 23.0291886,17.5211052 C22.9038446,17.4023583 22.9148397,17.0703067 23.1880676,17.1258319 L23.1880676,17.1258319 Z M20.6515013,18.5062649 C20.936274,18.9103343 21.2358901,19.3649811 21.6234669,19.797088 C21.9874042,20.2028067 22.3397967,20.6162219 22.6811941,21.0202913 C23.0451315,21.4501992 23.5404601,21.7712557 23.7785037,22.2275517 C24.0341394,22.7162833 24.1210006,23.2720849 24.1116548,23.8229387 C24.1105553,23.8966058 24.1682795,23.8713171 24.2391978,23.8955063 C24.3079171,23.9202452 24.3178126,23.9620265 24.3628925,23.9037526 C24.7499195,23.4122722 25.1611357,23.0186482 25.3398059,22.5799442 C25.5712524,22.012048 25.4283163,21.4507489 25.3859852,20.953771 C25.3398059,20.410064 25.2062156,19.924631 24.9351867,19.4408472 C24.679551,18.9840014 24.4294128,18.4936206 24.0676744,18.0670113 C23.7279263,17.6678896 23.3788323,17.2638202 23.0451315,16.8487557 C22.7103311,16.432042 22.2864705,16.0758012 22.0049963,15.6343485 C21.7141763,15.1808012 21.6152206,14.6337957 21.4294036,14.1439646 C21.2435867,13.6502853 21.0803096,13.1621035 21.0533717,12.6205955 C21.0489736,12.5469284 20.9472691,12.5760654 20.875801,12.556824 C20.804333,12.5381323 20.6729417,12.491953 20.6317101,12.5540752 C20.6388569,12.5892595 20.775196,12.5788142 20.775196,12.5788142 C20.4464429,13.0774413 20.2446831,13.5513295 20.0643637,13.9993793 C19.844462,14.5469345 19.5800302,15.0158749 19.5668361,15.5156016 C19.5519927,16.051612 19.6932795,16.5700303 19.8961389,17.0884486 C20.0764583,17.5502422 20.3134024,18.0301777 20.6515013,18.5062649 L20.6515013,18.5062649 Z M23.2666824,10.4952454 C23.5162709,10.4578621 23.621274,10.5639647 23.5855399,10.8108044 L23.2666824,10.8108044 L23.2666824,10.4952454 Z M24.455801,11.2835931 C24.6636081,11.2610531 24.518473,11.5909057 24.7713599,11.5216367 C24.7878526,11.7464862 24.782355,11.9520943 24.5344158,11.9152607 C24.6284238,11.5749628 24.2749318,11.4732583 24.455801,11.2835931 L24.455801,11.2835931 Z M28.0979232,17.0466673 C27.9060589,17.2561237 27.729038,17.1758595 27.6223857,16.9680524 C27.7334361,16.7388049 28.0127112,16.9905924 28.0979232,17.0466673 L28.0979232,17.0466673 Z M27.9384944,11.758031 C28.2089735,11.8608351 28.2282149,12.2824966 27.8604293,12.0746895 C27.8263445,11.9086637 27.9137555,11.8652331 27.9384944,11.758031 L27.9384944,11.758031 Z M22.4926284,11.6051993 C22.6157734,12.1164708 22.8681106,12.5535255 23.0946093,13.0032245 C23.3255062,13.4622693 23.5509054,13.9119683 23.851621,14.3264831 C24.1517869,14.7409978 24.3568452,15.2368762 24.6866978,15.6261022 C25.0209484,16.0191765 25.5338691,16.2610684 25.8576744,16.6475457 C26.1946738,17.0483166 26.4832948,17.4842717 26.7636695,17.8987864 C27.0572383,18.3308933 27.2216148,18.8256722 27.402484,19.2973614 C27.5844526,19.7663018 27.6960528,20.2506353 27.7158439,20.7822477 C27.7158439,20.7932428 27.7169434,20.8036881 27.7174932,20.8146832 C27.755976,20.8564645 27.7840135,20.9097907 27.7801652,20.9950026 C27.7631228,21.0070972 27.7455307,21.0125947 27.7273888,21.0208411 C27.7455307,21.35894 27.7565257,21.7179295 27.693304,22.0873644 C27.7301375,22.1637802 27.7763169,22.2297507 27.9384944,22.1775241 C27.8060036,22.5123245 27.9478402,22.649763 27.6223857,22.7305769 C27.6922045,22.5986359 27.6834084,22.490884 27.6119404,22.4210652 C27.4679047,22.8306322 27.1616916,23.2198582 26.9225485,23.6865996 C26.9203495,23.6931967 26.9208992,23.7019927 26.9181504,23.7096893 C26.98632,23.6904479 27.0610866,23.6783533 27.147398,23.6783533 C27.1391517,23.8047968 27.0583378,23.858123 26.9912678,23.9240935 C26.9973151,23.9323398 27.0028126,23.9422354 27.0099594,23.9482827 C27.0676836,23.9999596 27.1188108,23.9070511 27.1847813,23.8630707 C27.6042438,23.5788478 28.1122168,23.3875333 28.4822014,23.0252452 C28.845589,22.6673552 29.0440503,22.1593822 29.3425669,21.7421187 C29.6416332,21.3248552 29.970936,20.9317809 30.1886387,20.470537 C30.40964,20.0037956 30.5619219,19.5172631 30.6850669,19.0219345 C30.8093113,18.5233073 30.9429016,18.0230309 30.9522474,17.5106599 C30.9615933,17.0015874 30.7911694,16.5128559 30.6685742,16.0081814 C30.5465288,15.4974597 30.5047474,14.9729941 30.2787984,14.5232951 C30.0479016,14.0642503 29.8186541,13.5870635 29.5195878,13.1725488 C29.2188722,12.7569346 28.8395417,12.3940967 28.5091394,12.0043209 C28.1737892,11.6101471 27.7719189,11.2764462 27.4481136,10.889969 C27.111664,10.4886483 26.8604262,10.0383996 26.5800516,9.62333509 C26.2870325,9.19122822 25.9357395,8.79980316 25.7543206,8.32866373 C25.5734514,7.86027308 25.4728464,7.34790208 25.453605,6.81628968 C25.4365626,6.34350099 25.4728464,5.82288367 25.6229293,5.28192545 C25.6300761,5.25333823 25.6399717,5.22420125 25.648218,5.19506427 C25.5487125,5.20056182 25.4211695,5.15438246 25.326062,5.12689474 C25.3804877,4.98340887 25.5783992,4.86246293 25.7295817,4.9229359 C25.838433,4.57878971 25.9753218,4.21705139 26.1671861,3.84431798 C26.1787309,3.81133272 26.1803802,3.83991995 26.1803802,3.83991995 C26.2161142,3.77120066 26.1847782,3.81243223 26.1265043,3.76075533 C26.0687801,3.70907842 26.0429416,3.57933641 25.9786204,3.62331675 C25.5586081,3.90808948 25.1836757,4.26872829 24.8153403,4.63156613 C24.4508532,4.98890641 24.0913139,5.36273933 23.7922475,5.78055259 C23.4931812,6.1978161 23.1770725,6.62222641 22.9582703,7.08292051 C22.7411173,7.54196534 22.538258,8.02739838 22.415113,8.51448069 C22.5140688,8.46445304 22.6157734,8.41662442 22.7136296,8.36384801 L22.7136296,8.8366367 C22.5569497,8.65301877 22.4546954,8.69425034 22.3678342,8.78550955 C22.3244036,9.21156913 22.412914,9.65851937 22.4057672,10.086778 C22.3964214,10.5953007 22.3716825,11.1010746 22.4926284,11.6051993 L22.4926284,11.6051993 Z"/>
    <path fill="#4A4A4A" d="M22.4926284 11.6051993C22.6157734 12.1164708 22.8681106 12.5535255 23.0946093 13.0032245 23.3255062 13.4622693 23.5509054 13.9119683 23.851621 14.3264831 24.1517869 14.7409978 24.3568452 15.2368762 24.6866978 15.6261022 25.0209484 16.0191765 25.5338691 16.2610684 25.8576744 16.6475457 26.1946738 17.0483166 26.4832948 17.4842717 26.7636695 17.8987864 27.0572383 18.3308933 27.2216148 18.8256722 27.402484 19.2973614 27.5844526 19.7663018 27.6960528 20.2506353 27.7158439 20.7822477 27.7158439 20.7932428 27.7169434 20.8036881 27.7174932 20.8146832 27.755976 20.8564645 27.7840135 20.9097907 27.7801652 20.9950026 27.7631228 21.0070972 27.7455307 21.0125947 27.7273888 21.0208411 27.7455307 21.35894 27.7565257 21.7179295 27.693304 22.0873644 27.7301375 22.1637802 27.7763169 22.2297507 27.9384944 22.1775241 27.8060036 22.5123245 27.9478402 22.649763 27.6223857 22.7305769 27.6922045 22.5986359 27.6834084 22.490884 27.6119404 22.4210652 27.4679047 22.8306322 27.1616916 23.2198582 26.9225485 23.6865996 26.9203495 23.6931967 26.9208992 23.7019927 26.9181504 23.7096893 26.98632 23.6904479 27.0610866 23.6783533 27.147398 23.6783533 27.1391517 23.8047968 27.0583378 23.858123 26.9912678 23.9240935 26.9973151 23.9323398 27.0028126 23.9422354 27.0099594 23.9482827 27.0676836 23.9999596 27.1188108 23.9070511 27.1847813 23.8630707 27.6042438 23.5788478 28.1122168 23.3875333 28.4822014 23.0252452 28.845589 22.6673552 29.0440503 22.1593822 29.3425669 21.7421187 29.6416332 21.3248552 29.970936 20.9317809 30.1886387 20.470537 30.40964 20.0037956 30.5619219 19.5172631 30.6850669 19.0219345 30.8093113 18.5233073 30.9429016 18.0230309 30.9522474 17.5106599 30.9615933 17.0015874 30.7911694 16.5128559 30.6685742 16.0081814 30.5465288 15.4974597 30.5047474 14.9729941 30.2787984 14.5232951 30.0479016 14.0642503 29.8186541 13.5870635 29.5195878 13.1725488 29.2188722 12.7569346 28.8395417 12.3940967 28.5091394 12.0043209 28.1737892 11.6101471 27.7719189 11.2764462 27.4481136 10.889969 27.111664 10.4886483 26.8604262 10.0383996 26.5800516 9.62333509 26.2870325 9.19122822 25.9357395 8.79980316 25.7543206 8.32866373 25.5734514 7.86027308 25.4728464 7.34790208 25.453605 6.81628968 25.4365626 6.34350099 25.4728464 5.82288367 25.6229293 5.28192545 25.6300761 5.25333823 25.6399717 5.22420125 25.648218 5.19506427 25.5487125 5.20056182 25.4211695 5.15438246 25.326062 5.12689474 25.3804877 4.98340887 25.5783992 4.86246293 25.7295817 4.9229359 25.838433 4.57878971 25.9753218 4.21705139 26.1671861 3.84431798 26.1787309 3.81133272 26.1803802 3.83991995 26.1803802 3.83991995 26.2161142 3.77120066 26.1847782 3.81243223 26.1265043 3.76075533 26.0687801 3.70907842 26.0429416 3.57933641 25.9786204 3.62331675 25.5586081 3.90808948 25.1836757 4.26872829 24.8153403 4.63156613 24.4508532 4.98890641 24.0913139 5.36273933 23.7922475 5.78055259 23.4931812 6.1978161 23.1770725 6.62222641 22.9582703 7.08292051 22.7411173 7.54196534 22.538258 8.02739838 22.415113 8.51448069 22.5140688 8.46445304 22.6157734 8.41662442 22.7136296 8.36384801L22.7136296 8.8366367C22.5569497 8.65301877 22.4546954 8.69425034 22.3678342 8.78550955 22.3244036 9.21156913 22.412914 9.65851937 22.4057672 10.086778 22.3964214 10.5953007 22.3716825 11.1010746 22.4926284 11.6051993L22.4926284 11.6051993zM20.6515013 18.5062649C20.936274 18.9103343 21.2358901 19.3649811 21.6234669 19.797088 21.9874042 20.2028067 22.3397967 20.6162219 22.6811941 21.0202913 23.0451315 21.4501992 23.5404601 21.7712557 23.7785037 22.2275517 24.0341394 22.7162833 24.1210006 23.2720849 24.1116548 23.8229387 24.1105553 23.8966058 24.1682795 23.8713171 24.2391978 23.8955063 24.3079171 23.9202452 24.3178126 23.9620265 24.3628925 23.9037526 24.7499195 23.4122722 25.1611357 23.0186482 25.3398059 22.5799442 25.5712524 22.012048 25.4283163 21.4507489 25.3859852 20.953771 25.3398059 20.410064 25.2062156 19.924631 24.9351867 19.4408472 24.679551 18.9840014 24.4294128 18.4936206 24.0676744 18.0670113 23.7279263 17.6678896 23.3788323 17.2638202 23.0451315 16.8487557 22.7103311 16.432042 22.2864705 16.0758012 22.0049963 15.6343485 21.7141763 15.1808012 21.6152206 14.6337957 21.4294036 14.1439646 21.2435867 13.6502853 21.0803096 13.1621035 21.0533717 12.6205955 21.0489736 12.5469284 20.9472691 12.5760654 20.875801 12.556824 20.804333 12.5381323 20.6729417 12.491953 20.6317101 12.5540752 20.6388569 12.5892595 20.775196 12.5788142 20.775196 12.5788142 20.4464429 13.0774413 20.2446831 13.5513295 20.0643637 13.9993793 19.844462 14.5469345 19.5800302 15.0158749 19.5668361 15.5156016 19.5519927 16.051612 19.6932795 16.5700303 19.8961389 17.0884486 20.0764583 17.5502422 20.3134024 18.0301777 20.6515013 18.5062649L20.6515013 18.5062649z"/>
  </g>
</svg>
